<svg width="21" height="16" viewBox="0 0 21 16" fill="none" xmlns="http://www.w3.org/2000/svg">
<path fill-rule="evenodd" clip-rule="evenodd" d="M11.3214 0.292893C11.7109 -0.0976311 12.3424 -0.0976311 12.7318 0.292893L19.7132 7.29289C19.9002 7.48043 20.0053 7.73478 20.0053 8C20.0053 8.26522 19.9002 8.51957 19.7132 8.70711L12.7318 15.7071C12.3424 16.0976 11.7109 16.0976 11.3214 15.7071C10.9319 15.3166 10.9319 14.6834 11.3214 14.2929L16.6002 9L1.05593 9C0.505116 9 0.0585938 8.55228 0.0585938 8C0.0585938 7.44771 0.505116 7 1.05593 7L16.6002 7L11.3214 1.70711C10.9319 1.31658 10.9319 0.683417 11.3214 0.292893Z" fill="#333333"/>
</svg>
