<svg width="104" height="33" viewBox="0 0 104 33" fill="none" xmlns="http://www.w3.org/2000/svg">
  <path d="M29.3168 16.3882L26.1304 17.9676C26.0155 17.8515 25.882 17.755 25.7354 17.682L24.4993 17.0702L16.8859 13.2983C16.679 13.1956 16.4507 13.1421 16.2193 13.1421C15.9878 13.1421 15.7596 13.1956 15.5526 13.2983L10.0927 16.0042L6.36761 14.1722C6.48681 14.2304 6.61806 14.2602 6.75094 14.2593C6.88381 14.2584 7.01464 14.2268 7.13303 14.167L15.5526 9.99451C15.7596 9.89183 15.9878 9.83838 16.2193 9.83838C16.4507 9.83838 16.679 9.89183 16.8859 9.99451L26.5573 14.7874L26.8694 14.9421L28.7284 15.8632C28.9688 15.9822 29.1722 16.1637 29.3168 16.3882V16.3882Z" fill="#FF6A6A"/>
  <path d="M26.0576 24.0895L22.3611 25.9227L20.0466 24.7752L16.8862 23.209C16.6792 23.1063 16.451 23.0528 16.2195 23.0528C15.9881 23.0528 15.7598 23.1063 15.5529 23.209L8.11921 26.8925L6.21011 27.8386L3.02277 26.2511C3.10663 26.1208 3.22466 26.0155 3.36424 25.9464L5.17828 25.0473L5.88147 24.6988L15.5529 19.9057C15.7598 19.803 15.9881 19.7495 16.2195 19.7495C16.451 19.7495 16.6792 19.803 16.8862 19.9057L22.333 22.605L25.307 24.0782C25.423 24.1366 25.5509 24.168 25.681 24.1699C25.8111 24.1719 25.9399 24.1444 26.0576 24.0895Z" fill="#FF6A6A"/>
  <path d="M29.4165 9.73147L26.2198 11.3158L16.8867 6.69054C16.6797 6.58786 16.4514 6.5344 16.22 6.5344C15.9886 6.5344 15.7603 6.58786 15.5534 6.69054L8.2335 10.3181L6.35971 11.2468C6.31571 11.2686 6.27367 11.294 6.23403 11.3229L3.12299 9.78115C3.2676 9.55665 3.47095 9.37523 3.71137 9.25622L5.16319 8.53575L5.88194 8.17968L15.5534 3.38677C15.7603 3.28409 15.9886 3.23063 16.22 3.23063C16.4514 3.23063 16.6797 3.28409 16.8867 3.38677L26.5581 8.17968L27.0563 8.42661L29.0753 9.42728C29.2148 9.49612 29.3327 9.60127 29.4165 9.73147Z" fill="#FF6A6A"/>
  <path d="M10.0929 16.004L7.03472 17.5196L5.88166 18.091L5.0439 18.507C4.05281 18.9975 2.88666 18.2831 2.88666 17.1848V10.5773C2.88657 10.2949 2.96824 10.0184 3.12196 9.7807V9.7807L6.23301 11.3225C6.12387 11.4022 6.03519 11.5063 5.97415 11.6263C5.91312 11.7463 5.88143 11.8789 5.88166 12.0133V13.4019C5.88106 13.5627 5.92642 13.7204 6.01251 13.8567C6.09859 13.993 6.22187 14.1023 6.36807 14.172L10.0929 16.004Z" fill="#FF6A6A"/>
  <path d="M6.21029 27.8393L4.13626 28.8672C4.00452 28.9322 3.85819 28.9629 3.71115 28.9562C3.56412 28.9495 3.42124 28.9057 3.29608 28.8289C3.17091 28.7521 3.06761 28.6449 2.99596 28.5175C2.92431 28.3901 2.88668 28.2466 2.88666 28.1007V26.7124C2.8866 26.5489 2.9339 26.3888 3.02295 26.2511L6.21029 27.8393Z" fill="#FF6A6A"/>
  <path d="M29.5534 10.1932V11.5818C29.5533 11.7278 29.5157 11.8713 29.4439 11.9988C29.3722 12.1263 29.2688 12.2335 29.1435 12.3103C29.0182 12.387 28.8752 12.4307 28.728 12.4373C28.5809 12.4439 28.4345 12.4131 28.3028 12.3478L26.5584 11.4834L26.2201 11.3158L29.4168 9.73144C29.506 9.86922 29.5534 10.0295 29.5534 10.1932V10.1932Z" fill="#FF6A6A"/>
  <path d="M29.5529 17.1843V27.0956C29.5529 28.1939 28.3867 28.9083 27.3956 28.4171L26.5579 28.0011L22.3604 25.9209L26.0569 24.0877L26.0594 24.0865C26.2085 24.0179 26.3346 23.9084 26.4228 23.771C26.511 23.6335 26.5575 23.4738 26.5569 23.3109V19.0038C26.5569 18.6162 26.4032 18.2442 26.129 17.9679V17.9679L29.3153 16.3884C29.4697 16.6257 29.5521 16.9019 29.5529 17.1843V17.1843Z" fill="#FF6A6A"/>
  <path d="M43.5438 14.2742C43.4984 13.8159 43.3033 13.4598 42.9586 13.206C42.6139 12.9522 42.1461 12.8253 41.5552 12.8253C41.1537 12.8253 40.8147 12.8821 40.5382 12.9958C40.2616 13.1056 40.0495 13.259 39.9018 13.456C39.7578 13.653 39.6859 13.8765 39.6859 14.1265C39.6783 14.3348 39.7219 14.5166 39.8166 14.6719C39.915 14.8272 40.0495 14.9617 40.22 15.0753C40.3904 15.1852 40.5874 15.2818 40.8109 15.3651C41.0344 15.4446 41.273 15.5128 41.5268 15.5696L42.5722 15.8196C43.0798 15.9333 43.5457 16.0848 43.97 16.2742C44.3942 16.4636 44.7616 16.6965 45.0722 16.9731C45.3828 17.2496 45.6234 17.5753 45.7938 17.9503C45.9681 18.3253 46.0571 18.7553 46.0609 19.2401C46.0571 19.9522 45.8753 20.5696 45.5154 21.0924C45.1594 21.6113 44.6442 22.0147 43.97 22.3026C43.2995 22.5867 42.4908 22.7287 41.5438 22.7287C40.6044 22.7287 39.7863 22.5848 39.0893 22.2969C38.3961 22.009 37.8544 21.5829 37.4643 21.0185C37.0779 20.4503 36.8753 19.7477 36.8563 18.9106H39.237C39.2635 19.3007 39.3753 19.6265 39.5722 19.8878C39.773 20.1454 40.04 20.3405 40.3734 20.4731C40.7105 20.6018 41.0912 20.6662 41.5154 20.6662C41.9321 20.6662 42.2938 20.6056 42.6007 20.4844C42.9113 20.3632 43.1518 20.1946 43.3222 19.9787C43.4927 19.7628 43.5779 19.5147 43.5779 19.2344C43.5779 18.9731 43.5003 18.7534 43.345 18.5753C43.1935 18.3973 42.97 18.2458 42.6745 18.1208C42.3828 17.9958 42.0249 17.8821 41.6007 17.7799L40.3336 17.4617C39.3525 17.2231 38.5779 16.8499 38.0097 16.3424C37.4416 15.8348 37.1594 15.1511 37.1632 14.2912C37.1594 13.5867 37.3469 12.9712 37.7257 12.4446C38.1082 11.9181 38.6328 11.5071 39.2995 11.2117C39.9662 10.9162 40.7238 10.7685 41.5722 10.7685C42.4359 10.7685 43.1897 10.9162 43.8336 11.2117C44.4813 11.5071 44.9851 11.9181 45.345 12.4446C45.7048 12.9712 45.8904 13.581 45.9018 14.2742H43.5438ZM52.3123 13.8367V15.6549H47.0566V13.8367H52.3123ZM48.2498 11.7458H50.6703V19.8821C50.6703 20.1056 50.7043 20.2799 50.7725 20.4049C50.8407 20.5261 50.9354 20.6113 51.0566 20.6606C51.1816 20.7098 51.3256 20.7344 51.4884 20.7344C51.6021 20.7344 51.7157 20.7249 51.8293 20.706C51.943 20.6833 52.0301 20.6662 52.0907 20.6549L52.4714 22.456C52.3502 22.4939 52.1797 22.5374 51.96 22.5867C51.7403 22.6397 51.4733 22.6719 51.1589 22.6833C50.5756 22.706 50.0642 22.6284 49.6248 22.4503C49.1892 22.2723 48.8502 21.9958 48.6078 21.6208C48.3653 21.2458 48.246 20.7723 48.2498 20.2003V11.7458ZM56.3776 22.7287C55.8208 22.7287 55.3246 22.6321 54.889 22.439C54.4534 22.242 54.1087 21.9522 53.8549 21.5696C53.6049 21.1833 53.4799 20.7022 53.4799 20.1265C53.4799 19.6416 53.5689 19.2344 53.747 18.9049C53.925 18.5753 54.1674 18.3102 54.4742 18.1094C54.7811 17.9087 55.1295 17.7571 55.5197 17.6549C55.9136 17.5526 56.3265 17.4806 56.7583 17.439C57.2659 17.3859 57.675 17.3367 57.9856 17.2912C58.2962 17.242 58.5216 17.17 58.6617 17.0753C58.8019 16.9806 58.872 16.8405 58.872 16.6549V16.6208C58.872 16.2609 58.7583 15.9825 58.5311 15.7856C58.3076 15.5886 57.9894 15.4901 57.5765 15.4901C57.1409 15.4901 56.7943 15.5867 56.5367 15.7799C56.2792 15.9693 56.1087 16.2079 56.0254 16.4958L53.7867 16.314C53.9004 15.7837 54.1239 15.3253 54.4572 14.939C54.7905 14.5488 55.2204 14.2496 55.747 14.0412C56.2773 13.8291 56.8909 13.7231 57.5879 13.7231C58.0727 13.7231 58.5367 13.7799 58.9799 13.8935C59.4269 14.0071 59.8227 14.1833 60.1674 14.4219C60.5159 14.6606 60.7905 14.9674 60.9913 15.3424C61.192 15.7136 61.2924 16.1587 61.2924 16.6776V22.564H58.997V21.3537H58.9288C58.7886 21.6265 58.6011 21.867 58.3663 22.0753C58.1314 22.2799 57.8492 22.4409 57.5197 22.5583C57.1901 22.6719 56.8095 22.7287 56.3776 22.7287ZM57.0708 21.0583C57.4269 21.0583 57.7413 20.9882 58.014 20.8481C58.2867 20.7041 58.5007 20.5109 58.6561 20.2685C58.8114 20.0261 58.889 19.7515 58.889 19.4446V18.5185C58.8132 18.5678 58.7091 18.6132 58.5765 18.6549C58.4477 18.6928 58.3019 18.7287 58.139 18.7628C57.9761 18.7931 57.8132 18.8215 57.6504 18.8481C57.4875 18.8708 57.3398 18.8916 57.2072 18.9106C56.9231 18.9522 56.675 19.0185 56.4629 19.1094C56.2507 19.2003 56.086 19.3234 55.9686 19.4787C55.8511 19.6303 55.7924 19.8196 55.7924 20.0469C55.7924 20.3765 55.9117 20.6284 56.1504 20.8026C56.3928 20.9731 56.6996 21.0583 57.0708 21.0583ZM67.1134 22.7344C66.2195 22.7344 65.4506 22.545 64.8066 22.1662C64.1665 21.7837 63.674 21.2534 63.3293 20.5753C62.9884 19.8973 62.818 19.117 62.818 18.2344C62.818 17.3405 62.9903 16.5564 63.335 15.8821C63.6835 15.2041 64.1778 14.6757 64.818 14.2969C65.4581 13.9143 66.2195 13.7231 67.1021 13.7231C67.8634 13.7231 68.5301 13.8613 69.1021 14.1378C69.674 14.4143 70.1267 14.8026 70.46 15.3026C70.7934 15.8026 70.9771 16.3897 71.0112 17.064H68.7271C68.6627 16.6284 68.4922 16.278 68.2157 16.0128C67.943 15.7439 67.585 15.6094 67.1418 15.6094C66.7668 15.6094 66.4392 15.7117 66.1589 15.9162C65.8824 16.117 65.6665 16.4106 65.5112 16.7969C65.3559 17.1833 65.2782 17.6511 65.2782 18.2003C65.2782 18.7571 65.354 19.2306 65.5055 19.6208C65.6608 20.0109 65.8786 20.3083 66.1589 20.5128C66.4392 20.7174 66.7668 20.8196 67.1418 20.8196C67.4184 20.8196 67.6665 20.7628 67.8862 20.6492C68.1096 20.5356 68.2934 20.3708 68.4373 20.1549C68.585 19.9352 68.6816 19.6719 68.7271 19.3651H71.0112C70.9733 20.0318 70.7915 20.6189 70.4657 21.1265C70.1437 21.6303 69.6987 22.0242 69.1305 22.3083C68.5623 22.5924 67.89 22.7344 67.1134 22.7344ZM74.7541 20.0526L74.7597 17.1492H75.112L77.9075 13.8367H80.6859L76.9302 18.2231H76.3563L74.7541 20.0526ZM72.5609 22.564V10.9276H74.9813V22.564H72.5609ZM78.0154 22.564L75.4472 18.7628L77.0609 17.0526L80.8507 22.564H78.0154ZM89.1063 10.9276H91.5666V18.4844C91.5666 19.3329 91.3639 20.0753 90.9586 20.7117C90.5571 21.3481 89.9946 21.8443 89.2711 22.2003C88.5476 22.5526 87.7048 22.7287 86.7427 22.7287C85.7768 22.7287 84.9321 22.5526 84.2086 22.2003C83.4851 21.8443 82.9226 21.3481 82.5211 20.7117C82.1196 20.0753 81.9188 19.3329 81.9188 18.4844V10.9276H84.3791V18.2742C84.3791 18.7174 84.4757 19.1113 84.6688 19.456C84.8658 19.8007 85.1423 20.0715 85.4984 20.2685C85.8544 20.4655 86.2692 20.564 86.7427 20.564C87.22 20.564 87.6347 20.4655 87.987 20.2685C88.3431 20.0715 88.6177 19.8007 88.8109 19.456C89.0078 19.1113 89.1063 18.7174 89.1063 18.2742V10.9276ZM93.5453 25.8367V13.8367H95.9316V15.3026H96.0396C96.1456 15.0678 96.299 14.8291 96.4998 14.5867C96.7043 14.3405 96.9695 14.1359 97.2953 13.9731C97.6248 13.8064 98.0339 13.7231 98.5225 13.7231C99.1589 13.7231 99.746 13.8897 100.284 14.2231C100.822 14.5526 101.252 15.0507 101.574 15.7174C101.896 16.3803 102.057 17.2117 102.057 18.2117C102.057 19.1852 101.899 20.0071 101.585 20.6776C101.274 21.3443 100.85 21.8499 100.312 22.1946C99.7782 22.5356 99.1797 22.706 98.5168 22.706C98.0471 22.706 97.6475 22.6284 97.318 22.4731C96.9922 22.3178 96.7252 22.1227 96.5168 21.8878C96.3085 21.6492 96.1494 21.4087 96.0396 21.1662H95.9657V25.8367H93.5453ZM95.9146 18.2003C95.9146 18.7193 95.9865 19.1719 96.1305 19.5583C96.2744 19.9446 96.4828 20.2458 96.7555 20.4617C97.0282 20.6738 97.3596 20.7799 97.7498 20.7799C98.1437 20.7799 98.4771 20.6719 98.7498 20.456C99.0225 20.2363 99.229 19.9333 99.3691 19.5469C99.5131 19.1568 99.585 18.7079 99.585 18.2003C99.585 17.6965 99.515 17.2534 99.3748 16.8708C99.2346 16.4882 99.0282 16.189 98.7555 15.9731C98.4828 15.7571 98.1475 15.6492 97.7498 15.6492C97.3559 15.6492 97.0225 15.7534 96.7498 15.9617C96.4809 16.17 96.2744 16.4655 96.1305 16.8481C95.9865 17.2306 95.9146 17.6814 95.9146 18.2003Z" fill="#FF6A6A"/>
</svg>
