<svg width="68" height="42" viewBox="0 0 68 42" fill="none" xmlns="http://www.w3.org/2000/svg">
<path d="M1.13778 18.5V5.40909H9.95881V7.69105H3.90554V10.8104H9.50497V13.0923H3.90554V16.218H9.98438V18.5H1.13778ZM14.9078 18.6854C14.2814 18.6854 13.7232 18.5767 13.2331 18.3594C12.7431 18.1378 12.3553 17.8118 12.0698 17.3814C11.7885 16.9467 11.6479 16.4055 11.6479 15.7578C11.6479 15.2124 11.748 14.7543 11.9483 14.3835C12.1486 14.0128 12.4213 13.7145 12.7665 13.4886C13.1117 13.2628 13.5037 13.0923 13.9426 12.9773C14.3858 12.8622 14.8503 12.7812 15.3361 12.7344C15.9071 12.6747 16.3674 12.6193 16.7168 12.5682C17.0662 12.5128 17.3198 12.4318 17.4775 12.3253C17.6351 12.2187 17.714 12.0611 17.714 11.8523V11.8139C17.714 11.4091 17.5861 11.0959 17.3304 10.8743C17.079 10.6527 16.7211 10.5419 16.2566 10.5419C15.7665 10.5419 15.3766 10.6506 15.0868 10.8679C14.7971 11.081 14.6053 11.3494 14.5115 11.6733L11.9931 11.4688C12.1209 10.8722 12.3723 10.3565 12.7473 9.92188C13.1223 9.48295 13.606 9.14631 14.1983 8.91193C14.7949 8.6733 15.4853 8.55398 16.2694 8.55398C16.8148 8.55398 17.3368 8.6179 17.8354 8.74574C18.3382 8.87358 18.7836 9.07173 19.1713 9.3402C19.5634 9.60866 19.8723 9.95384 20.0982 10.3757C20.324 10.7933 20.437 11.294 20.437 11.8778V18.5H17.8546V17.1385H17.7779C17.6202 17.4453 17.4093 17.7159 17.1451 17.9503C16.8809 18.1804 16.5634 18.3615 16.1926 18.4936C15.8219 18.6214 15.3936 18.6854 14.9078 18.6854ZM15.6877 16.8061C16.0882 16.8061 16.4419 16.7273 16.7488 16.5696C17.0556 16.4077 17.2963 16.1903 17.4711 15.9176C17.6458 15.6449 17.7331 15.3359 17.7331 14.9908V13.9489C17.6479 14.0043 17.5307 14.0554 17.3816 14.1023C17.2367 14.1449 17.0726 14.1854 16.8894 14.2237C16.7061 14.2578 16.5229 14.2898 16.3397 14.3196C16.1564 14.3452 15.9902 14.3686 15.8411 14.3899C15.5215 14.4368 15.2424 14.5114 15.0037 14.6136C14.7651 14.7159 14.5797 14.8544 14.4476 15.0291C14.3155 15.1996 14.2495 15.4126 14.2495 15.6683C14.2495 16.0391 14.3837 16.3224 14.6522 16.5185C14.9249 16.7102 15.2701 16.8061 15.6877 16.8061ZM22.5495 18.5V8.68182H25.1895V10.3949H25.2917C25.4707 9.78551 25.7711 9.32528 26.193 9.0142C26.6149 8.69886 27.1007 8.54119 27.6504 8.54119C27.7868 8.54119 27.9338 8.54972 28.0914 8.56676C28.2491 8.58381 28.3876 8.60724 28.5069 8.63707V11.0533C28.3791 11.0149 28.2022 10.9808 27.9764 10.951C27.7505 10.9212 27.5439 10.9062 27.3564 10.9062C26.9558 10.9062 26.5978 10.9936 26.2825 11.1683C25.9714 11.3388 25.7243 11.5774 25.541 11.8842C25.362 12.1911 25.2725 12.5447 25.2725 12.9453V18.5H22.5495ZM32.6378 12.8239V18.5H29.9148V8.68182H32.5099V10.4141H32.625C32.8423 9.84304 33.2067 9.39133 33.718 9.05895C34.2294 8.7223 34.8494 8.55398 35.5781 8.55398C36.2599 8.55398 36.8544 8.70312 37.3615 9.00142C37.8686 9.29972 38.2628 9.72585 38.544 10.2798C38.8253 10.8295 38.9659 11.4858 38.9659 12.2486V18.5H36.2429V12.7344C36.2472 12.1335 36.0938 11.6648 35.7827 11.3281C35.4716 10.9872 35.0433 10.8168 34.4979 10.8168C34.1314 10.8168 33.8075 10.8956 33.5263 11.0533C33.2493 11.2109 33.032 11.4411 32.8743 11.7436C32.7209 12.0419 32.642 12.402 32.6378 12.8239Z" fill="#1F2A37"/>
<path d="M0.860795 36.5V27.7727H4.2017C4.83239 27.7727 5.35653 27.8722 5.77415 28.071C6.1946 28.267 6.50852 28.5355 6.71591 28.8764C6.92614 29.2173 7.03125 29.6037 7.03125 30.0355C7.03125 30.3906 6.96307 30.6946 6.8267 30.9474C6.69034 31.1974 6.5071 31.4006 6.27699 31.5568C6.04688 31.7131 5.78977 31.8253 5.50568 31.8935V31.9787C5.81534 31.9957 6.11222 32.0909 6.39631 32.2642C6.68324 32.4347 6.91761 32.6761 7.09943 32.9886C7.28125 33.3011 7.37216 33.679 7.37216 34.1222C7.37216 34.5739 7.26278 34.9801 7.04403 35.3409C6.82528 35.6989 6.49574 35.9815 6.0554 36.1889C5.61506 36.3963 5.06108 36.5 4.39347 36.5H0.860795ZM2.44176 35.179H4.14205C4.71591 35.179 5.12926 35.0696 5.3821 34.8509C5.63778 34.6293 5.76562 34.3452 5.76562 33.9986C5.76562 33.7401 5.7017 33.5071 5.57386 33.2997C5.44602 33.0895 5.2642 32.9247 5.02841 32.8054C4.79261 32.6832 4.51136 32.6222 4.18466 32.6222H2.44176V35.179ZM2.44176 31.4844H4.00568C4.27841 31.4844 4.52415 31.4347 4.7429 31.3352C4.96165 31.233 5.13352 31.0895 5.25852 30.9048C5.38636 30.7173 5.45028 30.4957 5.45028 30.2401C5.45028 29.902 5.33097 29.6236 5.09233 29.4048C4.85653 29.1861 4.50568 29.0767 4.03977 29.0767H2.44176V31.4844ZM9.63814 38.9545C9.42791 38.9545 9.23331 38.9375 9.05433 38.9034C8.8782 38.8722 8.73757 38.8352 8.63246 38.7926L8.99041 37.5909C9.21484 37.6563 9.41513 37.6875 9.59126 37.6847C9.7674 37.6818 9.92223 37.6264 10.0558 37.5185C10.1921 37.4134 10.3072 37.2372 10.4009 36.9901L10.533 36.6364L8.15945 29.9545H9.79581L11.3043 34.8977H11.3725L12.8853 29.9545H14.5259L11.9052 37.2926C11.783 37.6392 11.6211 37.9361 11.4194 38.1832C11.2177 38.4332 10.9705 38.6236 10.6779 38.7543C10.3881 38.8878 10.0415 38.9545 9.63814 38.9545ZM23.381 30.1719C23.3413 29.7997 23.1737 29.5099 22.8782 29.3026C22.5856 29.0952 22.2049 28.9915 21.7362 28.9915C21.4066 28.9915 21.1239 29.0412 20.8881 29.1406C20.6523 29.2401 20.4719 29.375 20.3469 29.5455C20.2219 29.7159 20.158 29.9105 20.1552 30.1293C20.1552 30.3111 20.1964 30.4687 20.2788 30.6023C20.364 30.7358 20.479 30.8494 20.6239 30.9432C20.7688 31.0341 20.9293 31.1108 21.1055 31.1733C21.2816 31.2358 21.4592 31.2884 21.6381 31.331L22.4563 31.5355C22.7859 31.6122 23.1026 31.7159 23.4066 31.8466C23.7134 31.9773 23.9876 32.142 24.229 32.3409C24.4734 32.5398 24.6665 32.7798 24.8086 33.0611C24.9506 33.3423 25.0217 33.6719 25.0217 34.0497C25.0217 34.5611 24.891 35.0114 24.6296 35.4006C24.3683 35.7869 23.9904 36.0895 23.4961 36.3082C23.0046 36.5241 22.4094 36.6321 21.7106 36.6321C21.0316 36.6321 20.4421 36.527 19.9421 36.3168C19.445 36.1065 19.0558 35.7997 18.7745 35.3963C18.4961 34.9929 18.3455 34.5014 18.3228 33.9219H19.8782C19.9009 34.2259 19.9947 34.4787 20.1594 34.6804C20.3242 34.8821 20.5387 35.0327 20.8029 35.1321C21.07 35.2315 21.3683 35.2812 21.6978 35.2812C22.0415 35.2812 22.3427 35.2301 22.6012 35.1278C22.8626 35.0227 23.0671 34.8778 23.2148 34.6932C23.3626 34.5057 23.4379 34.2869 23.4407 34.0369C23.4379 33.8097 23.3711 33.6222 23.2404 33.4744C23.1097 33.3239 22.9265 33.1989 22.6907 33.0994C22.4577 32.9972 22.185 32.9062 21.8725 32.8267L20.8796 32.571C20.1609 32.3864 19.5927 32.1065 19.1751 31.7315C18.7603 31.3537 18.5529 30.8523 18.5529 30.2273C18.5529 29.7131 18.6921 29.2628 18.9705 28.8764C19.2518 28.4901 19.6339 28.1903 20.1168 27.9773C20.5998 27.7614 21.1467 27.6534 21.7575 27.6534C22.3768 27.6534 22.9194 27.7614 23.3853 27.9773C23.854 28.1903 24.2219 28.4872 24.489 28.8679C24.756 29.2457 24.8938 29.6804 24.9023 30.1719H23.381ZM29.6314 29.9545V31.1477H25.8686V29.9545H29.6314ZM26.7976 28.3864H28.3402V34.5312C28.3402 34.7386 28.3714 34.8977 28.4339 35.0085C28.4993 35.1165 28.5845 35.1903 28.6896 35.2301C28.7947 35.2699 28.9112 35.2898 29.0391 35.2898C29.1357 35.2898 29.2237 35.2827 29.3033 35.2685C29.3857 35.2543 29.4482 35.2415 29.4908 35.2301L29.7507 36.4361C29.6683 36.4645 29.5504 36.4957 29.397 36.5298C29.2464 36.5639 29.0618 36.5838 28.843 36.5895C28.4567 36.6009 28.1087 36.5426 27.799 36.4148C27.4893 36.2841 27.2436 36.0824 27.0618 35.8097C26.8828 35.5369 26.7947 35.196 26.7976 34.7869V28.3864ZM32.805 36.6321C32.3903 36.6321 32.0167 36.5582 31.6843 36.4105C31.3548 36.2599 31.0934 36.0384 30.9002 35.7457C30.7099 35.4531 30.6147 35.0923 30.6147 34.6634C30.6147 34.294 30.6829 33.9886 30.8192 33.7472C30.9556 33.5057 31.1417 33.3125 31.3775 33.1676C31.6133 33.0227 31.8789 32.9134 32.1744 32.8395C32.4727 32.7628 32.7809 32.7074 33.0991 32.6733C33.4826 32.6335 33.7937 32.598 34.0323 32.5668C34.271 32.5327 34.4442 32.4815 34.5522 32.4134C34.663 32.3423 34.7184 32.233 34.7184 32.0852V32.0597C34.7184 31.7386 34.6232 31.4901 34.4329 31.3139C34.2425 31.1378 33.9684 31.0497 33.6104 31.0497C33.2326 31.0497 32.9329 31.1321 32.7113 31.2969C32.4925 31.4616 32.3448 31.6562 32.2681 31.8807L30.8278 31.6761C30.9414 31.2784 31.1289 30.946 31.3903 30.679C31.6516 30.4091 31.9712 30.2074 32.3491 30.0739C32.7269 29.9375 33.1445 29.8693 33.6019 29.8693C33.9173 29.8693 34.2312 29.9062 34.5437 29.9801C34.8562 30.054 35.1417 30.1761 35.4002 30.3466C35.6587 30.5142 35.8661 30.7429 36.0224 31.0327C36.1815 31.3224 36.261 31.6847 36.261 32.1193V36.5H34.7781V35.6009H34.7269C34.6332 35.7827 34.5011 35.9531 34.3306 36.1122C34.163 36.2685 33.9513 36.3949 33.6957 36.4915C33.4428 36.5852 33.146 36.6321 32.805 36.6321ZM33.2056 35.4986C33.5153 35.4986 33.7837 35.4375 34.011 35.3153C34.2383 35.1903 34.413 35.0256 34.5352 34.821C34.6602 34.6165 34.7227 34.3935 34.7227 34.152V33.3807C34.6744 33.4205 34.592 33.4574 34.4755 33.4915C34.3619 33.5256 34.234 33.5554 34.092 33.581C33.9499 33.6065 33.8093 33.6293 33.6701 33.6491C33.5309 33.669 33.4102 33.6861 33.3079 33.7003C33.0778 33.7315 32.8718 33.7827 32.69 33.8537C32.5082 33.9247 32.3647 34.0241 32.2596 34.152C32.1545 34.277 32.1019 34.4389 32.1019 34.6378C32.1019 34.9219 32.2056 35.1364 32.413 35.2812C32.6204 35.4261 32.8846 35.4986 33.2056 35.4986ZM40.6673 36.6278C40.0138 36.6278 39.4528 36.4844 38.984 36.1974C38.5181 35.9105 38.1587 35.5142 37.9059 35.0085C37.6559 34.5 37.5309 33.9148 37.5309 33.2528C37.5309 32.5881 37.6587 32.0014 37.9144 31.4929C38.1701 30.9815 38.5309 30.5838 38.9968 30.2997C39.4656 30.0128 40.0195 29.8693 40.6587 29.8693C41.19 29.8693 41.6602 29.9673 42.0692 30.1634C42.4812 30.3565 42.8093 30.6307 43.0536 30.9858C43.2979 31.3381 43.4371 31.75 43.4712 32.2216H41.9968C41.9371 31.9062 41.7951 31.6435 41.5707 31.4332C41.3491 31.2202 41.0522 31.1136 40.68 31.1136C40.3647 31.1136 40.0877 31.1989 39.8491 31.3693C39.6104 31.5369 39.4244 31.7784 39.2908 32.0938C39.1602 32.4091 39.0948 32.7869 39.0948 33.2273C39.0948 33.6733 39.1602 34.0568 39.2908 34.3778C39.4215 34.696 39.6048 34.9418 39.8406 35.1151C40.0792 35.2855 40.359 35.3707 40.68 35.3707C40.9073 35.3707 41.1104 35.3281 41.2894 35.2429C41.4712 35.1548 41.6232 35.0284 41.7454 34.8636C41.8675 34.6989 41.9513 34.4986 41.9968 34.2628H43.4712C43.4343 34.7259 43.2979 35.1364 43.0621 35.4943C42.8263 35.8494 42.5053 36.1278 42.0991 36.3295C41.6928 36.5284 41.2156 36.6278 40.6673 36.6278ZM46.1442 34.446L46.1399 32.5838H46.3871L48.7393 29.9545H50.5419L47.6484 33.1761H47.3288L46.1442 34.446ZM44.7379 36.5V27.7727H46.2805V36.5H44.7379ZM48.8459 36.5L46.7152 33.5213L47.755 32.4347L50.6911 36.5H48.8459ZM57.1396 27.7727H58.7205V33.4744C58.7205 34.0994 58.5728 34.6491 58.2773 35.1236C57.9847 35.598 57.5728 35.9687 57.0415 36.2358C56.5103 36.5 55.8896 36.6321 55.1793 36.6321C54.4663 36.6321 53.8441 36.5 53.3129 36.2358C52.7816 35.9687 52.3697 35.598 52.0771 35.1236C51.7844 34.6491 51.6381 34.0994 51.6381 33.4744V27.7727H53.2191V33.3423C53.2191 33.706 53.2987 34.0298 53.4577 34.3139C53.6197 34.598 53.8469 34.821 54.1396 34.983C54.4322 35.142 54.7788 35.2216 55.1793 35.2216C55.5799 35.2216 55.9265 35.142 56.2191 34.983C56.5146 34.821 56.7418 34.598 56.9009 34.3139C57.06 34.0298 57.1396 33.706 57.1396 33.3423V27.7727ZM60.3707 38.9545V29.9545H61.8878V31.0369H61.9773C62.0568 30.8778 62.169 30.7088 62.3139 30.5298C62.4588 30.348 62.6548 30.1932 62.902 30.0653C63.1491 29.9347 63.4645 29.8693 63.848 29.8693C64.3537 29.8693 64.8097 29.9986 65.2159 30.2571C65.625 30.5128 65.9489 30.892 66.1875 31.3949C66.429 31.8949 66.5497 32.5085 66.5497 33.2358C66.5497 33.9545 66.4318 34.5653 66.196 35.0682C65.9602 35.571 65.6392 35.9545 65.233 36.2188C64.8267 36.483 64.3665 36.6151 63.8523 36.6151C63.4773 36.6151 63.1662 36.5526 62.919 36.4276C62.6719 36.3026 62.473 36.152 62.3224 35.9759C62.1747 35.7969 62.0597 35.6278 61.9773 35.4688H61.9134V38.9545H60.3707ZM61.8835 33.2273C61.8835 33.6506 61.9432 34.0213 62.0625 34.3395C62.1847 34.6577 62.3594 34.9062 62.5866 35.0852C62.8168 35.2614 63.0952 35.3494 63.4219 35.3494C63.7628 35.3494 64.0483 35.2585 64.2784 35.0767C64.5085 34.892 64.6818 34.6406 64.7983 34.3224C64.9176 34.0014 64.9773 33.6364 64.9773 33.2273C64.9773 32.821 64.919 32.4602 64.8026 32.1449C64.6861 31.8295 64.5128 31.5824 64.2827 31.4034C64.0526 31.2244 63.7656 31.1349 63.4219 31.1349C63.0923 31.1349 62.8125 31.2216 62.5824 31.3949C62.3523 31.5682 62.1776 31.8111 62.0582 32.1236C61.9418 32.4361 61.8835 32.804 61.8835 33.2273Z" fill="#9CA3AF"/>
</svg>
